<svg xmlns="http://www.w3.org/2000/svg" xmlns:xlink="http://www.w3.org/1999/xlink" viewBox="0 0 90 150"><symbol id="c" viewBox="-34.9 -61 69.7 122"><circle cx="8.2" r="12.7" fill="none" stroke="#004254" stroke-linecap="round" stroke-linejoin="round" stroke-width="2"/><path fill="none" stroke="#004254" stroke-linecap="round" stroke-linejoin="round" stroke-width="2" d="M33.3 5.2c.3-1.4.5-2.9.6-4.3l-4.7-2.5c-.2-2.2-.7-4.3-1.5-6.4l3.4-3.8c-.7-1.4-1.6-2.7-2.5-4l-5.2 1c-1.4-1.4-2.9-2.6-4.6-3.6l.2-5.2c-1.5-.7-3.1-1.3-4.8-1.7L11-21.1c-1.8-.2-3.7-.2-5.5 0l-3.3-4.2c-1.6.4-3.2 1-4.8 1.7l.2 5.2c-1.7 1-3.2 2.2-4.6 3.6l-5.2-1.1c-1 1.3-1.8 2.6-2.5 4l3.5 3.9c-.8 2.1-1.3 4.3-1.4 6.5L-17.4 1c.1 1.5.3 2.9.6 4.3l5.1.7c.8 2.4 2 4.7 3.5 6.7l-2 4.9c.9.9 1.9 1.8 3 2.6l4.3-2.8c2.3 1.5 4.9 2.4 7.6 2.9l1.6 4.9c.6 0 1.3.1 1.9.1s1.3 0 1.9-.1l1.6-4.9c2.7-.5 5.3-1.4 7.6-2.9l4.3 2.7c1.1-.8 2.1-1.7 3-2.6l-2-4.9c1.6-2 2.8-4.2 3.5-6.6l5.2-.8z"/><path fill="none" stroke="#004254" stroke-linecap="round" stroke-miterlimit="10" stroke-width="2" d="M25-15.9V-60h-58.9v44.1m0-.6V60H25V19.6"/></symbol><defs><path id="a" d="M10.1 14h69.7v122H10.1z"/></defs><clipPath id="b"><use overflow="visible" xlink:href="#a"/></clipPath><g clip-path="url(#b)"><use width="69.7" height="122" x="-34.9" y="-61" overflow="visible" transform="translate(45 75.01)" xlink:href="#c"/></g></svg>