<?xml version="1.0" encoding="UTF-8"?>
<svg xmlns="http://www.w3.org/2000/svg" xmlns:xlink="http://www.w3.org/1999/xlink" viewBox="0 0 90 120"><symbol id="a" viewBox="-26.6 -26.3 53.2 52.6"><circle r="12.7" fill="none" stroke="#004254" stroke-linecap="round" stroke-linejoin="round" stroke-width="2" style="stroke: #ffffff;"/><path fill="none" stroke="#004254" stroke-linecap="round" stroke-linejoin="round" stroke-width="2" d="M25 5.3c.3-1.4.5-2.9.6-4.3l-4.7-2.5c-.1-2.3-.6-4.5-1.4-6.5l3.5-3.8c-.7-1.4-1.6-2.7-2.5-4l-5.2 1.1c-1.4-1.4-2.9-2.6-4.6-3.6l.2-5.2c-1.5-.7-3.1-1.3-4.8-1.7L2.8-21c-1.8-.2-3.7-.2-5.5 0L-6-25.3c-1.6.4-3.2 1-4.8 1.7l.2 5.2c-1.7 1-3.2 2.2-4.6 3.6l-5.2-1.1c-1 1.3-1.8 2.6-2.5 4l3.4 3.8c-.8 2.1-1.3 4.3-1.4 6.5L-25.6 1c.1 1.4.3 2.9.6 4.3l5 .7c.8 2.4 2 4.7 3.5 6.7l-2 4.9c.9 1 1.9 1.8 3 2.6l4.3-2.7c2.3 1.5 4.9 2.4 7.6 2.9l1.6 4.9c.6 0 1.3.1 1.9.1s1.3 0 1.9-.1l1.6-4.9C6.1 20 8.7 19 11 17.5l4.3 2.7c1.1-.8 2.1-1.7 3-2.6l-2-4.9c1.6-2 2.8-4.3 3.5-6.7l5.2-.7z" style="stroke: #ffffff;"/></symbol><use width="53.2" height="52.6" x="-26.6" y="-26.3" overflow="visible" transform="translate(45 60)" xlink:href="#a"/></svg>
