<svg xmlns="http://www.w3.org/2000/svg" xmlns:xlink="http://www.w3.org/1999/xlink" viewBox="0 0 90 150"><symbol id="a" viewBox="-32.9 -59.8 65.8 119.5"><path fill="none" stroke="#004254" stroke-linecap="round" stroke-miterlimit="10" stroke-width="2" d="M25.8-26.6v-32.2h-57.7V58.8h57.7V22.9"/><path fill="none" stroke="#004254" stroke-linecap="round" stroke-miterlimit="10" stroke-width="2" d="M-15.2 22.2h32.8c1.9 0 3.4-1.5 3.4-3.4v-45.6c0-1.9-1.5-3.4-3.4-3.4h-36.8c-1.9 0-3.4 1.5-3.4 3.4V23c0 2.8 2.3 5.1 5.1 5.1h38.2c2.8 0 5.1-2.3 5.1-5.1v-2.7M30-13.2h-4.2V-4H30c1 0 1.9-.8 1.9-1.9v-5.5c0-1-.8-1.8-1.9-1.8zM30-.9h-4.2v9.3H30c1 0 1.9-.9 1.9-1.9V1c0-1-.8-1.9-1.9-1.9z"/><path fill="none" stroke="#004254" stroke-linecap="round" stroke-miterlimit="10" stroke-width="2" d="M30 11.4h-4.2v9.3H30c1 0 1.9-.9 1.9-1.9v-5.5c0-1-.8-1.9-1.9-1.9zM30-25.5h-4.2v9.3H30c1 0 1.9-.9 1.9-1.9v-5.5c0-1.1-.8-1.9-1.9-1.9z"/></symbol><use width="65.8" height="119.5" x="-32.9" y="-59.8" overflow="visible" transform="translate(44.995 72.76)" xlink:href="#a"/></svg>