<?xml version="1.0" encoding="UTF-8"?>
<svg xmlns="http://www.w3.org/2000/svg" xmlns:xlink="http://www.w3.org/1999/xlink" viewBox="0 0 90 120"><symbol id="c" viewBox="-28.3 -30.1 56.5 60.3"><path fill="none" stroke="#004254" stroke-linecap="round" stroke-miterlimit="10" stroke-width="2" d="M-19.9 23.3h32.8c1.9 0 3.4-1.5 3.4-3.4v0-45.7c0-1.9-1.5-3.4-3.4-3.4 0 0 0 0 0 0h-36.8c-1.9 0-3.4 1.5-3.4 3.4V24c0 2.8 2.3 5.1 5.1 5.1H16c2.8 0 5.1-2.3 5.1-5.1v-2.7M25.4-12.1h-4.2v9.3h4.2c1 0 1.9-.9 1.9-1.9v-5.4c0-1.1-.9-1.9-1.9-2h0zM25.4.3h-4.2v9.3h4.2c1 0 1.9-.8 1.9-1.9V2.2c0-1.1-.9-1.9-1.9-1.9zM25.4 12.6h-4.2v9.3h4.2c1 0 1.9-.9 1.9-1.9v-5.5c0-1.1-.9-1.9-1.9-1.9zM25.4-24.4h-4.2v9.3h4.2c1 0 1.9-.8 1.9-1.9v-5.5c0-1-.9-1.9-1.9-1.9z" style="stroke: #ffffff;"/></symbol><defs><path id="a" d="M16.7 29.9h56.5v60.3H16.7z" style="fill: #ffffff;"/></defs><clipPath id="b"><use overflow="visible" xlink:href="#a"/></clipPath><g clip-path="url(#b)"><use width="56.5" height="60.3" x="-28.3" y="-30.1" overflow="visible" transform="translate(45 59.995)" xlink:href="#c"/></g></svg>
