<?xml version="1.0" encoding="UTF-8"?>
<svg xmlns="http://www.w3.org/2000/svg" xmlns:xlink="http://www.w3.org/1999/xlink" viewBox="0 0 90 120"><symbol id="c" viewBox="-33.4 -30.3 66.8 60.5"><path fill="none" stroke="#004254" stroke-linecap="round" stroke-linejoin="round" stroke-width="2" d="M3.8 0c0 3.6-2.9 6.4-6.4 6.4S-9.1 3.6-9.1 0c0-3.6 2.9-6.4 6.4-6.4S3.8-3.6 3.8 0h0z" style="stroke: #ffffff;"/><path fill="none" stroke="#004254" stroke-linecap="round" stroke-linejoin="round" stroke-width="2" d="M10.1 2.7c.2-.7.3-1.4.3-2.2L8-.8c-.1-1.1-.3-2.2-.7-3.3L9-6c-.4-.7-.8-1.4-1.3-2.1l-2.6.6c-.7-.7-1.5-1.3-2.4-1.8l.1-2.7c-.8-.4-1.6-.6-2.4-.8l-1.7 2.1c-.5-.1-.9-.1-1.4-.1-.5 0-.9 0-1.4.1l-1.6-2.1c-.8.2-1.6.5-2.4.8l.1 2.7c-.9.5-1.6 1.1-2.3 1.8l-2.7-.6c-.5.6-.9 1.3-1.3 2.1l1.8 1.9c-.4 1.1-.7 2.2-.7 3.3L-15.6.5c0 .7.1 1.5.3 2.2l2.6.4c.4 1.2 1 2.4 1.8 3.4l-1 2.5c.5.5 1 .9 1.5 1.3l2.2-1.4c1.2.7 2.5 1.2 3.8 1.5l.8 2.5h2l.8-2.5c1.4-.2 2.7-.7 3.9-1.5l2.2 1.4c.5-.4 1-.8 1.5-1.3l-1-2.5c.8-1 1.4-2.2 1.8-3.4l2.5-.4z" style="stroke: #ffffff;"/><path fill="none" stroke="#004254" stroke-linecap="round" stroke-miterlimit="10" stroke-width="2" d="M18.2 29.3h-50.6v-44.7M-18.8-29.3h44.1v5.9" style="stroke: #ffffff;"/><path fill="none" stroke="#004254" stroke-linecap="round" stroke-linejoin="bevel" stroke-width="2" d="M-19-29.3l-13.4 13.9H-19z" style="stroke: #ffffff;"/><path fill="none" stroke="#004254" stroke-miterlimit="10" stroke-width="2" d="M20.1-18.2c0 2.9 2.3 5.2 5.2 5.2 2.9 0 5.2-2.3 5.2-5.2 0-2.9-2.3-5.2-5.2-5.2 0 0 0 0 0 0-2.9 0-5.2 2.3-5.2 5.2 0 0 0 0 0 0z" style="stroke: #ffffff;"/><path fill="none" stroke="#004254" stroke-linecap="round" stroke-linejoin="round" stroke-width="2" d="M18.2 29.3v-34c-.1-3 2.3-5.4 5.2-5.5h3.7c3 .1 5.3 2.6 5.2 5.5v34" style="stroke: #ffffff;"/></symbol><defs><path id="a" d="M11.6 29.7h66.8v60.5H11.6z" style="fill: #ffffff;"/></defs><clipPath id="b"><use overflow="visible" xlink:href="#a"/></clipPath><g clip-path="url(#b)"><use width="66.8" height="60.5" x="-33.4" y="-30.3" overflow="visible" transform="translate(44.996 59.995)" xlink:href="#c"/></g></svg>
