<svg xmlns="http://www.w3.org/2000/svg" xmlns:xlink="http://www.w3.org/1999/xlink" viewBox="0 0 90 150"><symbol id="c" viewBox="-33.4 -60.3 66.8 120.7"><path fill="none" stroke="#004254" stroke-linecap="round" stroke-linejoin="round" stroke-width="2" d="M9.6-.1c0 3.6-2.9 6.4-6.4 6.4-3.6 0-6.4-2.9-6.4-6.4 0-3.6 2.9-6.4 6.4-6.4h0c3.5-.1 6.4 2.8 6.4 6.4z"/><path fill="none" stroke="#004254" stroke-linecap="round" stroke-linejoin="round" stroke-width="2" d="M15.9 2.5c.2-.7.3-1.5.3-2.2L13.8-1c-.1-1.1-.3-2.2-.7-3.3l1.8-1.9c-.4-.7-.8-1.4-1.3-2l-2.7.6c-.7-.7-1.5-1.4-2.3-1.9l.1-2.6c-.8-.4-1.6-.6-2.4-.8l-1.7 2.1c-.5-.1-.9-.1-1.4-.1-.5 0-.9 0-1.4.1L.1-13c-.8.2-1.6.5-2.4.8l.1 2.6c-.8.6-1.6 1.2-2.3 2l-2.6-.6c-.5.6-.9 1.3-1.3 2l1.8 1.9c-.5 1.1-.8 2.2-.8 3.3L-9.8.3c0 .7.1 1.5.3 2.2l2.6.3c.4 1.2 1 2.4 1.8 3.4l-1 2.5c.5.5 1 .9 1.5 1.3l2.2-1.3c1.2.7 2.5 1.2 3.9 1.5l.8 2.5h2l.8-2.5c1.3-.2 2.6-.7 3.7-1.5l2.2 1.4c.5-.4 1-.8 1.5-1.3l-1-2.5c.8-1 1.4-2.2 1.8-3.4l2.6-.4z"/><path fill="none" stroke="#004254" stroke-linecap="round" stroke-miterlimit="10" stroke-width="2" d="M18 59.3h-50.4V-45.9M-18.8-59.3h44.1v66"/><path fill="none" stroke="#004254" stroke-linecap="round" stroke-linejoin="bevel" stroke-width="2" d="M-19-59.6l-13.4 13.7H-19z"/><path fill="none" stroke="#004254" stroke-miterlimit="10" stroke-width="2" d="M20.1 11.9c0 2.9 2.4 5.2 5.2 5.2 2.9 0 5.2-2.4 5.2-5.2 0-2.9-2.4-5.2-5.2-5.2-2.8 0-5.2 2.3-5.2 5.2 0 0 0 0 0 0z"/><path fill="none" stroke="#004254" stroke-linecap="round" stroke-linejoin="round" stroke-width="2" d="M18.2 59.3v-34c-.1-3 2.3-5.4 5.2-5.5h3.8c3 .1 5.3 2.6 5.2 5.5v34"/></symbol><defs><path id="a" d="M11.6 14.7h66.8v120.7H11.6z"/></defs><clipPath id="b"><use overflow="visible" xlink:href="#a"/></clipPath><g clip-path="url(#b)"><use width="66.8" height="120.7" x="-33.4" y="-60.3" overflow="visible" transform="translate(44.996 75)" xlink:href="#c"/></g></svg>