<svg xmlns="http://www.w3.org/2000/svg" xmlns:xlink="http://www.w3.org/1999/xlink" viewBox="0 0 90 150">
<symbol id="c" viewBox="-33.4 -60.3 66.8 120.7">
<path fill="none" stroke="#004254" stroke-linejoin="round"
 stroke-width="2" d="M9.6-.1c0 3.6-2.9 6.4-6.4 6.4-3.6 0-6.4-2.9-6.4-6.4 0-3.6 2.9-6.4 6.4-6.4h0c3.5-.1 6.4 2.8 6.4 6.4z"/>
 <path fill="none" stroke="#004254" stroke-linecap="round" stroke-miterlimit="10" stroke-width="2" d="M18 59.3h-50.4V-45.9M-18.8-59.3h44.1v66"/>
 <path fill="none" stroke="#004254" stroke-linecap="round" stroke-linejoin="bevel" stroke-width="2" d="M-19-59.6l-13.4 13.7H-19z"/>
 <path fill="none" stroke="#004254" stroke-miterlimit="10" stroke-width="2" d="M20.1 11.9c0 2.9 2.4 5.2 5.2 5.2 2.9 0 5.2-2.4 5.2-5.2 0-2.9-2.4-5.2-5.2-5.2-2.8 0-5.2 2.3-5.2 5.2 0 0 0 0 0 0z"/>
 <path fill="none" stroke="#004254" stroke-linejoin="round" stroke-width="2" d="M18.2 59.3v-34c-.1-3 2.3-5.4 5.2-5.5h3.8c3 .1 5.3 2.6 5.2 5.5v34"/>
 </symbol>
 <defs>
 <path id="a" d="M11.6 14.7h66.8v120.7H11.6z"/>
 </defs>
 
 <clipPath id="b">
 <use overflow="visible" xlink:href="#a"/>
 </clipPath>
 <g clip-path="url(#b)">
 <use width="66.8" height="120.7" x="-33.4" y="-60.3" overflow="visible" transform="translate(44.996 75)" xlink:href="#c"/>
 </g>
 </svg>

