<?xml version="1.0" encoding="utf-8"?>
<!-- Generator: Adobe Illustrator 24.1.1, SVG Export Plug-In . SVG Version: 6.00 Build 0)  -->
<svg version="1.1" id="Layer_1" xmlns="http://www.w3.org/2000/svg" xmlns:xlink="http://www.w3.org/1999/xlink" x="0px" y="0px"
	 viewBox="0 0 90 150" style="enable-background:new 0 0 90 150;" xml:space="preserve">
<style type="text/css">
	.st0{fill:none;stroke:#004254;stroke-width:1.9998;stroke-linecap:round;stroke-miterlimit:9.9992;}
	.st1{fill:none;stroke:#004254;stroke-width:1.9998;stroke-linecap:round;stroke-linejoin:round;stroke-miterlimit:3.9997;}
</style>
<symbol  id="Nuevo_símbolo_221" viewBox="-32.7 -60.9 65.4 121.8">
	<polyline class="st0" points="27.1,21.4 27.1,-59.9 -31.7,-59.9 -31.7,59.9 -17.7,59.9 13.1,59.9 27.1,59.9 27.1,54.5 	"/>
	<path class="st1" d="M-13.2,21.4h44.9l0,0v30.2c0,0.8-0.6,1.4-1.4,1.4c0,0,0,0,0,0h-42.1c-0.8,0-1.4-0.6-1.4-1.4
		C-13.2,51.6-13.2,21.4-13.2,21.4z"/>
	<path class="st1" d="M2.2,20.9v-3.5c0-3.9,3.1-7,7-7l0,0c3.9,0,7,3.1,7,7v3.5"/>
	<rect x="7.4" y="29.1" class="st1" width="3.6" height="5.5"/>
	<line class="st1" x1="-12.6" y1="32" x2="6.5" y2="32"/>
	<line class="st1" x1="11.1" y1="32" x2="30.3" y2="32"/>
</symbol>
<use xlink:href="#Nuevo_símbolo_221"  width="65.4" height="121.8" x="-32.7" y="-60.9" transform="matrix(1 0 0 1 45 73.875)" style="overflow:visible;"/>
</svg>
