<?xml version="1.0" encoding="UTF-8"?>
<svg xmlns="http://www.w3.org/2000/svg" xmlns:xlink="http://www.w3.org/1999/xlink" viewBox="0 0 90 120"><symbol id="a" viewBox="-23.5 -22.2 46.9 44.5"><path fill="none" stroke="#004254" stroke-linecap="round" stroke-linejoin="round" stroke-width="2" d="M-22.5-10.3h44.9v30.2c0 .8-.6 1.4-1.4 1.4 0 0 0 0 0 0h-42.2c-.8 0-1.4-.6-1.4-1.4h0v-30.2h.1zM-7-10.8v-3.5c0-3.9 3.1-7 7-7h0c3.9 0 7 3.1 7 7v3.5" style="stroke: #ffffff;"/><path fill="none" stroke="#004254" stroke-linecap="round" stroke-linejoin="round" stroke-width="2" d="M-1.8-2.6h3.6v5.5h-3.6zM-21.8.3h19.1M1.8.3h19.3" style="stroke: #ffffff;stroke: #ffffff;"/></symbol><use width="46.9" height="44.5" x="-23.5" y="-22.2" overflow="visible" transform="translate(44.995 60)" xlink:href="#a"/></svg>
