<svg xmlns="http://www.w3.org/2000/svg" xmlns:xlink="http://www.w3.org/1999/xlink" viewBox="0 0 90 150"><symbol id="a" viewBox="-32.5 -60 64.9 120.1"><path fill="none" stroke="#004254" stroke-linecap="round" stroke-linejoin="round" stroke-width="2" d="M-5.7 58.5V19.3c0-5.7 9.1-11.8 18.6-11.8s18.6 6.1 18.6 11.8v39.3M21-4.5c0-4.5-3.6-8.1-8.1-8.1S4.8-9 4.8-4.5s3.6 8.1 8.1 8.1c0 0 0 0 0 0 4.5 0 8.1-3.7 8.1-8.1z"/><path fill="none" stroke="#004254" stroke-linecap="round" stroke-miterlimit="10" stroke-width="2" d="M26.3 10.6V-59h-57.8V59h25.8"/><path fill="none" stroke="#004254" stroke-linecap="round" stroke-linejoin="round" stroke-width="2" d="M17.6 8.2l-2.4 4.3h-4.5L8.2 8.2M8.2 42.7l2.4-30.2h4.6l2.2 30.2-4.3 4.7z"/></symbol><use width="64.9" height="120.1" x="-32.5" y="-60" overflow="visible" transform="matrix(1.02 0 0 1.02 45.124 75.23)" xlink:href="#a"/></svg>