<?xml version="1.0" encoding="UTF-8"?>
<svg xmlns="http://www.w3.org/2000/svg" xmlns:xlink="http://www.w3.org/1999/xlink" viewBox="0 0 90 120"><symbol id="c" viewBox="-19.6 -36.6 39.1 73.2"><path fill="none" stroke="#004254" stroke-linecap="round" stroke-linejoin="round" stroke-width="2" d="M-18.6 35.6V-3.7c0-5.7 9.1-11.7 18.6-11.7s18.6 6 18.6 11.7v39.3M8.1-27.5c0-4.5-3.6-8.1-8.1-8.1s-8.1 3.6-8.1 8.1 3.6 8.1 8.1 8.1c0 0 0 0 0 0 4.5 0 8.1-3.6 8.1-8.1h0z" style="stroke: #ffffff;"/><path fill="none" stroke="#004254" stroke-linecap="round" stroke-linejoin="round" stroke-width="2" d="M4.7-14.7l-2.4 4.2h-4.5l-2.4-4.2M-4.6 19.8l2.3-30.2h4.6l2.2 30.2-4.3 4.7z" style="stroke: #ffffff;"/></symbol><defs><path id="a" d="M25.4 23.4h39.1v73.2H25.4z" style="fill: #ffffff;"/></defs><clipPath id="b"><use overflow="visible" xlink:href="#a"/></clipPath><g clip-path="url(#b)"><use width="39.1" height="73.2" x="-19.6" y="-36.6" overflow="visible" transform="translate(44.995 59.995)" xlink:href="#c"/></g></svg>
