<?xml version="1.0" encoding="utf-8"?>
<svg xmlns="http://www.w3.org/2000/svg">
  <g>
    <g transform="translate(8,20.7427803087078)">
      <path id="path1" height="112" width="112" transform="rotate(92,56,43.2572196912922) translate(0,0) scale(3.18290397743097,3.18290397743097)  " fill="#004254" d="M27.68381,15.894898C26.937597,15.894021 26.187856,16.161049 25.589285,16.7034 24.316333,17.85248 24.21633,19.819516 25.37129,21.094576 26.522253,22.370613 28.489182,22.465587 29.766148,21.313577 31.038108,20.161505 31.137104,18.192456 29.982144,16.919409 29.370695,16.240996 28.529518,15.895893 27.68381,15.894898z M27.685733,13.987986C29.050637,13.991437 30.409068,14.548636 31.396098,15.640382 32.964039,17.375477 33.091033,19.903502 31.860072,21.769583L34.865968,25.092675C35.328965,25.606667 35.286959,26.398681 34.776981,26.859693 34.267996,27.320704 33.477022,27.281702 33.013033,26.76771L30.004131,23.445595C28.027207,24.485663 25.522286,24.108639 23.955337,22.372566 22.097398,20.317516 22.255397,17.142438 24.308322,15.285391 25.27204,14.413012 26.481406,13.98494 27.685733,13.987986z M6.7080011,8.8859806C6.302,8.8859811 5.6640015,9.0219808 5.2919998,9.1889801 5.2919998,9.1889801 3.5039997,9.9919784 3.5039997,11.347975 3.5039997,12.711972 5.2919998,13.512971 5.2919998,13.512971 5.6640015,13.67997 6.302,13.81597 6.7080011,13.81597L8.3440008,13.81597C8.750001,13.81597 9.3880014,13.67997 9.7600012,13.512971 9.7600012,13.512971 11.555001,12.711972 11.555001,11.347975 11.555001,9.9919784 9.7600012,9.1889801 9.7600012,9.1889801 9.3880014,9.0219808 8.750001,8.8859811 8.3440008,8.8859806z M16.608002,7.2099848C16.200002,7.2099848 15.868002,7.5189838 15.868002,7.898983 15.868002,8.2769823 16.200002,8.5849814 16.608002,8.5849814L24.571004,8.5849814C24.980004,8.5849814 25.313004,8.2769823 25.313004,7.898983 25.313004,7.5189838 24.980004,7.2099848 24.571004,7.2099848z M7.5280008,3.4549923C6.3040009,3.4549923 5.3100014,4.4489908 5.3100014,5.6719875 5.3100014,6.9009852 6.3040009,7.898983 7.5280008,7.898983 8.7570009,7.898983 9.7530012,6.9009852 9.7530012,5.6719875 9.7530012,4.4489908 8.7570009,3.4549923 7.5280008,3.4549923z M0.74099922,0L28.072004,0C28.481004,0,28.814004,0.33199978,28.814004,0.74099827L28.814004,11.906974C28.581004,11.885974 28.345004,11.868974 28.107004,11.868974 27.115004,11.868974 26.171004,12.059974 25.298004,12.390973 25.260004,12.044974 24.953004,11.768975 24.570004,11.768974L16.608002,11.768974C16.200002,11.768975 15.868002,12.077974 15.868002,12.454973 15.868002,12.832972 16.200002,13.142972 16.608002,13.142972L23.803004,13.142972C22.085003,14.249969,20.826003,15.998965,20.358003,18.052961L0.74099922,18.052961C0.33399963,18.052961,0,17.719961,0,17.312962L0,0.74099827C0,0.33199978,0.33399963,0,0.74099922,0z" />
    </g>
  </g>
</svg>

