<svg xmlns="http://www.w3.org/2000/svg" xmlns:xlink="http://www.w3.org/1999/xlink" viewBox="0 0 90 150"><symbol id="e" viewBox="-30.5 -65 61.1 130.1"><path fill="none" stroke="#004254" stroke-linecap="round" stroke-width="2" d="M-22.4-54.3h-6.9c-.2 0-.3.1-.3.3V63.8c0 .2.1.3.3.3h58.5c.2 0 .3-.1.3-.3V-54.1c0-.2-.1-.3-.3-.3h-7M-15-18.9L-.2-.9c.1.2.4.2.5 0l14.9-17.9c.2-.2 0-.5-.3-.5H5.5c-.2 0-.3-.1-.3-.3V-42c0-.2-.1-.3-.3-.3h-9.7c-.2 0-.3.1-.3.3v22.4c0 .2-.1.3-.3.3h-9.4c-.3-.1-.4.2-.2.4zm37.3-30.9v-14c0-.2-.1-.3-.3-.3h-43.7c-.2 0-.3.1-.3.3v14c0 .2.1.3.3.3h14.2c.2 0 .3-.1.3-.3.6-4.1 3.7-7.2 7.4-7.2 3.6 0 6.7 3.1 7.4 7.2 0 .2.2.3.3.3H22c.1.1.3 0 .3-.3z"/></symbol><defs><path id="a" d="M1.9.4H89v148.5H1.9z"/></defs><clipPath id="b"><use overflow="visible" xlink:href="#a"/></clipPath><g clip-path="url(#b)"><defs><path id="c" d="M12.8 11.8H74V142H12.8z"/></defs><clipPath id="d"><use overflow="visible" xlink:href="#c"/></clipPath><g clip-path="url(#d)"><use width="61.1" height="130.1" x="-30.5" y="-65" overflow="visible" transform="matrix(1 0 0 -1 43.388 76.845)" xlink:href="#e"/></g></g></svg>