<?xml version="1.0" encoding="utf-8"?>
<!-- Generator: Adobe Illustrator 24.1.2, SVG Export Plug-In . SVG Version: 6.00 Build 0)  -->
<svg version="1.1" id="Capa_1" xmlns="http://www.w3.org/2000/svg" xmlns:xlink="http://www.w3.org/1999/xlink" x="0px" y="0px"
	 viewBox="0 0 431.4 221.9" style="enable-background:new 0 0 431.4 221.9;" xml:space="preserve">
<style type="text/css">
	.st0{fill:#00495D;}
	.st1{fill:#FFFFFF;}
</style>
<rect class="st0" width="431.4" height="221.9"/>
<g>
	<rect x="74" y="92.2" class="st1" width="18.3" height="55.7"/>
	<path class="st1" d="M124.5,147.9h-18.3V92.2h39.1c9.5,0,16.2,3.6,18.8,9.8c1.3,3.2,1.8,7.6,1.8,15.2v30.8h-18.3V119
		c0-5.7-0.3-7.6-1.2-9.3c-1.2-1.9-3.1-2.5-7.9-2.5h-14V147.9z"/>
	<path class="st1" d="M204.8,147.9c-12.1,0-19-2.6-23.2-8.4c-2.4-3.6-3.6-9.5-3.6-18.8v-1.5c0-11,1.4-16.8,5.2-20.6
		c4.6-4.7,10.7-6.5,21.6-6.5h16.7V74h18.3v74H204.8z M221.5,107.2h-15.2c-8.7,0-10,1.5-10,11.9v1.9c0,10.4,1.3,11.9,10,11.9h15.2
		V107.2z"/>
	<path class="st1" d="M251.9,117.2c0-7.5,0.5-11.9,1.8-15.2c2.6-6.2,9.4-9.8,18.8-9.8h12.9v15h-6.1c-4.8,0-6.6,0.6-7.8,2.5
		c-0.9,1.6-1.2,3.6-1.2,9.3v28.9h-18.3V117.2z"/>
	<path class="st1" d="M322.4,147.9c-12.1,0-19.1-2.6-23.3-8.4c-2.4-3.6-3.6-9.5-3.6-18.8v-1.5c0-11,1.4-16.8,5.2-20.6
		c4.6-4.7,10.7-6.5,21.6-6.5h35v55.7H322.4z M339.1,107.2h-15.2c-8.7,0-10,1.5-10,11.9v1.9c0,10.4,1.3,11.9,10,11.9h15.2V107.2z"/>
</g>
</svg>
