<?xml version="1.0" encoding="UTF-8"?>
<svg xmlns="http://www.w3.org/2000/svg" xmlns:xlink="http://www.w3.org/1999/xlink" viewBox="0 0 90 120"><symbol id="c" viewBox="-24.8 -32.5 49.5 65.1"><path fill="none" stroke="#004254" stroke-linejoin="round" stroke-width="2" d="M-21.5-25.3c0 3.4 2.8 6.2 6.2 6.2S-9-21.9-9-25.3s-2.8-6.2-6.2-6.2c-3.5 0-6.3 2.7-6.3 6.2 0 0 0 0 0 0z" style="stroke: #ffffff;"/><path fill="none" stroke="#004254" stroke-linecap="round" stroke-linejoin="round" stroke-width="2" d="M-6.8-7.3c0-6.1-2.8-8.6-6.2-8.6h-4.5c-3.6.1-6.3 3.1-6.3 6.6v40.8" style="stroke: #ffffff;stroke: #ffffff;"/><path fill="none" stroke="#004254" stroke-linecap="round" stroke-linejoin="round" stroke-width="2" d="M14.8 6.1c0 8.1-6.6 14.7-14.7 14.7s-14.7-6.6-14.7-14.7S-8-8.5.1-8.5c0 0 0 0 0 0C8.2-8.5 14.8-2 14.8 6.1zM9.7 17.3l14.1 14M-3.1-7.8v28" style="stroke: #ffffff;stroke: #ffffff;stroke: #ffffff;"/></symbol><defs><path id="a" d="M20.5 27.5H70v65.1H20.5z" style="stroke: #ffffff;stroke: #ffffff;stroke: #ffffff;fill: #ffffff;"/></defs><clipPath id="b"><use overflow="visible" xlink:href="#a"/></clipPath><g clip-path="url(#b)" style="stroke: #ffffff;stroke: #ffffff;stroke: #ffffff;fill: #ffffff;fill: #ffffff;"><use width="49.5" height="65.1" x="-24.8" y="-32.5" overflow="visible" transform="translate(45.304 60.03)" xlink:href="#c"/></g></svg>
