<?xml version="1.0" encoding="utf-8"?>
<!-- Generator: Adobe Illustrator 24.1.1, SVG Export Plug-In . SVG Version: 6.00 Build 0)  -->
<svg version="1.1" id="Layer_1" xmlns="http://www.w3.org/2000/svg" xmlns:xlink="http://www.w3.org/1999/xlink" x="0px" y="0px"
	 viewBox="0 0 90 150" style="enable-background:new 0 0 90 150;" xml:space="preserve">
<style type="text/css">
	.st0{fill:none;stroke:#004254;stroke-width:2;stroke-linecap:round;stroke-miterlimit:10;}
	.st1{fill:none;stroke:#004254;stroke-width:2;stroke-linecap:round;stroke-linejoin:round;}
</style>
<symbol  id="Nuevo_símbolo_4" viewBox="-30.4 -61 60.9 122.1">
	<polyline class="st0" points="29.4,60 29.4,-60 -29.4,-60 -29.4,60 -19,60 	"/>
	<path class="st1" d="M-16.6,2.7c0,3.5,2.8,6.3,6.3,6.3S-4,6.2-4,2.7c0-3.5-2.8-6.3-6.3-6.3S-16.6-0.8-16.6,2.7L-16.6,2.7z"/>
	<path class="st1" d="M-1.7,20.9c0-6.7-2.8-8.7-6.3-8.7h-4.5c-3.6,0.1-6.4,3.1-6.3,6.7V60"/>
	<path class="st1" d="M20,34.4c0,8.2-6.6,14.8-14.8,14.8c-8.2,0-14.8-6.6-14.8-14.8S-3,19.6,5.2,19.6c0,0,0,0,0,0
		C13.4,19.6,20,26.2,20,34.4C20,34.4,20,34.4,20,34.4z"/>
	<line class="st1" x1="14.9" y1="45.6" x2="29.1" y2="59.8"/>
	<line class="st1" x1="2" y1="20.3" x2="2" y2="48.6"/>
</symbol>
<g>
	<defs>
		<rect id="SVGID_1_" x="14.6" y="14" width="60.9" height="122.1"/>
	</defs>
	<clipPath id="SVGID_2_">
		<use xlink:href="#SVGID_1_"  style="overflow:visible;"/>
	</clipPath>
	<g style="clip-path:url(#SVGID_2_);">
		
			<use xlink:href="#Nuevo_símbolo_4"  width="60.9" height="122.1" x="-30.4" y="-61" transform="matrix(1 0 0 1 44.995 75)" style="overflow:visible;"/>
	</g>
</g>
</svg>
