<svg xmlns="http://www.w3.org/2000/svg" xmlns:xlink="http://www.w3.org/1999/xlink" viewBox="0 0 90 150"><symbol id="a" viewBox="-175 -315 350 629.9"><path fill="none" stroke="#004254" stroke-linecap="round" stroke-width="10" d="M-45.8 280.1H-170V-310h290.1l-.1 500"/><path fill="none" stroke="#004254" stroke-linecap="round" stroke-linejoin="round" stroke-width="10" d="M45.5-78.6l-83.8 35.9L45.5-6.2l82.6-36.1z"/><path fill="none" stroke="#004254" stroke-linecap="round" stroke-linejoin="round" stroke-width="10" d="M84.9-21.2v20c0 10.9-17.3 19.7-38.6 19.7S7.6 9.7 7.6-1.2v-19.5M-9.7-30.2V7l-5.6-5.4L-21 7v-42.1M-45.8 220.9h184.9v89H-45.8zM-69.7 220.9h226M170 190.1l-13.7 30.8M-80 190.1h250M-69.7 220.9L-80 190.1"/><path fill="none" stroke="#004254" stroke-linecap="round" stroke-linejoin="round" stroke-width="10" d="M77.7 10.3c15.2 18 12.9 45-5.1 60.2s-45 12.9-60.2-5.1C-1.5 49-1.1 25 13.3 9.1M-13.2 190.1v-42.2c0-25 19.3-45.4 42.8-45.4h30.8c23.5 0 42.8 20.4 42.8 45.4v42.2"/></symbol><symbol id="b" viewBox="-175 -315 350 629.9"><use width="350" height="629.9" x="-175" y="-315" overflow="visible" xlink:href="#a"/></symbol><use width="350" height="629.9" x="-175" y="-315" overflow="visible" transform="matrix(.2 0 0 .2 44.667 74.564)" xlink:href="#b"/></svg>