<?xml version="1.0" encoding="UTF-8"?>
<svg xmlns="http://www.w3.org/2000/svg" xmlns:xlink="http://www.w3.org/1999/xlink" viewBox="0 0 90 120"><symbol id="a" viewBox="-130 -199.3 260 398.5"><path fill="none" stroke="#004254" stroke-linecap="round" stroke-linejoin="round" stroke-width="10" d="M.5-194.3l-83.7 35.9L.5-121.9 83.2-158z" style="stroke: #ffffff;"/><path fill="none" stroke="#004254" stroke-linecap="round" stroke-linejoin="round" stroke-width="10" d="M39.9-136.9v20c0 10.9-17.3 19.7-38.6 19.7s-38.6-8.8-38.6-19.7v-19.5M-54.7-145.9v37.3l-5.6-5.5-5.7 5.5v-42.2M-90.8 105.2H94.1v89H-90.8zM-114.7 105.2h226M125 74.4l-13.7 30.8M-125 74.4h250M-114.7 105.2L-125 74.4" style="stroke: #ffffff;"/><path fill="none" stroke="#004254" stroke-linecap="round" stroke-linejoin="round" stroke-width="10" d="M32.7-105.4c15.2 18 13 45-5.1 60.2s-45 13-60.2-5.1c-13.8-16.4-13.4-40.5 1-56.3M-58.2 74.4V32.2c0-25 19.3-45.4 42.8-45.4h30.8c23.5 0 42.8 20.4 42.8 45.4v42.2" style="stroke: #ffffff;"/></symbol><use width="260" height="398.5" x="-130" y="-199.3" overflow="visible" transform="matrix(.22 0 0 .22 45.39 60.59)" xlink:href="#a"/></svg>
