<?xml version="1.0" encoding="utf-8"?>
<svg xmlns="http://www.w3.org/2000/svg">
  <g>
    <g transform="translate(37,37.1835178140343)">
      <path id="path1" height="54" width="54" transform="rotate(331,27,26.8164821859657) translate(0,53.6329643719313) scale(0.84374999998899,-0.84374999998899)  " fill="#004254" d="M42.31448,35.094798C42.943371,35.094798 43.432968,35.346595 43.781963,35.849887 44.227257,36.534675 44.453754,37.875854 44.453754,39.874523 44.453754,41.873794 44.222057,43.214973 43.759865,43.899963 43.425167,44.403053 42.943371,44.654449 42.31448,44.654449 41.698586,44.654449 41.215492,44.395854 40.866596,43.878963 40.405701,43.207775 40.175205,41.873794 40.175205,39.874523 40.175205,37.875854 40.405701,36.534675 40.866596,35.849887 41.203793,35.346595 41.685589,35.094798 42.31448,35.094798z M42.354877,31.781549C40.261105,31.781549 38.606224,32.446239 37.399136,33.773719 36.188252,35.101798 35.58416,37.142166 35.58416,39.895923 35.58416,42.662879 36.188252,44.711051 37.399136,46.03923 38.606224,47.36531 40.279404,48.029998 42.418678,48.029998 44.487656,48.029998 46.125637,47.36531 47.334023,46.03923 48.544907,44.711051 49.148998,42.662879 49.148998,39.895923 49.148998,37.142166 48.544907,35.101798 47.334023,33.773719 46.125637,32.446239 44.465454,31.781549 42.354877,31.781549z M21.579021,18.825349C22.209314,18.825349 22.697609,19.085145 23.047804,19.601337 23.495699,20.272027 23.718397,21.607206 23.718397,23.605276 23.718397,25.605245 23.495699,26.946323 23.047804,27.631214 22.697609,28.134405 22.209314,28.386402 21.579021,28.386402 20.964529,28.386402 20.482735,28.134405 20.133738,27.631214 19.670244,26.946323 19.441046,25.605245 19.441046,23.605276 19.441046,21.607206 19.670244,20.266126 20.133738,19.581237 20.482735,19.078044 20.964529,18.825349 21.579021,18.825349z M38.080231,15.535L21.70672,47.966899 26.065969,47.966899 42.31448,15.535z M21.579021,15.535C19.511345,15.535 17.870764,16.19779 16.663778,17.52597 15.454092,18.854749 14.849999,20.894416 14.849999,23.648174 14.849999,26.415132 15.454092,28.4594 16.663778,29.77958 17.870764,31.101159 19.547844,31.761449 21.68322,31.761449 23.753496,31.761449 25.391478,31.097959 26.602463,29.76988 27.810749,28.442401 28.413641,26.401431 28.413641,23.648174 28.413641,20.880718 27.810749,18.836448 26.602463,17.51617 25.391478,16.195789 23.718397,15.535 21.579021,15.535z M39.201283,0.00014434547C39.827019,-0.0073802216,40.442665,0.27950355,40.839287,0.80851304L45.067089,6.4432882 52.107498,6.7212986C53.0658,6.7590183,53.865303,7.4679488,54.019001,8.4153293L55.144001,15.369055 61.248112,18.886657C62.078812,19.365857,62.457714,20.365159,62.151814,21.27596L59.916107,27.955766 63.686913,33.90557C64.201317,34.715473,64.071014,35.778072,63.375713,36.442672L58.293709,41.316879 58.865311,48.337882C58.943409,49.295482,58.336609,50.173683,57.414806,50.439987L50.649097,52.392585 47.891293,58.874992C47.518993,59.760394,46.56839,60.264293,45.632191,60.063094L38.727283,58.649791 33.277973,63.109393C32.906975,63.411994 32.453774,63.564994 32.000671,63.564994 31.547573,63.564994 31.09317,63.411994 30.722071,63.109393L25.270163,58.649791 18.367855,60.063094C17.430353,60.266895,16.482452,59.757793,16.106152,58.874992L13.350948,52.392585 6.5840101,50.439987C5.6607981,50.173683,5.0553274,49.295482,5.1321678,48.337882L5.7037687,41.316879 0.62044431,36.442672C-0.072244292,35.778072,-0.19986946,34.715473,0.31313134,33.90557L4.0840063,27.955766 1.8470135,21.27596C1.5423229,20.365159,1.9212233,19.365857,2.7532644,18.886657L8.8574524,15.369055 9.9798441,8.4153293C10.133444,7.4679488,10.932945,6.7590183,11.893946,6.7212986L18.930355,6.4432882 23.158262,0.80851304C23.735062,0.040875587,24.774063,-0.21632657,25.638765,0.19779811L32.000671,3.2231954 38.361382,0.19779811C38.630352,0.067811679,38.916859,0.0035636766,39.201283,0.00014434547z" />
    </g>
  </g>
</svg>

