<?xml version="1.0" encoding="UTF-8"?>
<svg xmlns="http://www.w3.org/2000/svg" xmlns:xlink="http://www.w3.org/1999/xlink" viewBox="0 0 90 120"><symbol id="e" viewBox="-28.3 -30.4 56.6 60.8"><path fill="none" stroke="#004254" stroke-miterlimit="10" stroke-width="2" d="M7-22.4c0 3.9-3.1 7-7 7s-7-3.1-7-7 3.1-7 7-7 7 3.1 7 7zM8.9.3c0 5-4 9-9 9s-9-4-9-9 4-9 9-9H0c4.9.1 8.9 4.1 8.9 9zM7 22.4c0 3.9-3.1 7-7 7s-7-3.1-7-7 3.1-7 7-7 7 3.2 7 7h0zM20.3-5c-3.9 0-7-3.1-7-7s3.1-7 7-7 7 3.1 7 7-3.1 7-7 7zM-20.3-5c-3.9 0-7-3.1-7-7s3.1-7 7-7 7 3.1 7 7-3.1 7-7 7zM20.3 18.7c-3.9 0-7-3.1-7-7s3.1-7 7-7 7 3.1 7 7-3.1 7-7 7zM-20.3 18.7c-3.9 0-7-3.1-7-7s3.1-7 7-7 7 3.1 7 7-3.1 7-7 7zM7-21.4c3 .9 5.8 2.5 8.2 4.7M-15.2-16.7c2.4-2.1 5.2-3.7 8.2-4.7" style="stroke: #ffffff;"/><path fill="none" stroke="#004254" stroke-miterlimit="10" stroke-width="2" d="M-22.3 4.9c-.3-1.5-.4-3-.4-4.5 0-1.8.2-3.6.6-5.3M-7 22.1c-3.2-1-6.2-2.8-8.7-5.2M15.7 16.9c-2.5 2.3-5.4 4.1-8.7 5.2M22.1-5.2c.8 3.3.9 6.8.2 10.1" style="stroke: #ffffff;"/></symbol><defs><path id="a" d="M-3-32h95v158H-3z" style="fill: #ffffff;"/></defs><clipPath id="b"><use overflow="visible" xlink:href="#a"/></clipPath><g clip-path="url(#b)"><defs><path id="c" d="M16.7 29.6h56.6v60.8H16.7z" style="fill: #ffffff;"/></defs><clipPath id="d"><use overflow="visible" xlink:href="#c"/></clipPath><g clip-path="url(#d)"><use width="56.6" height="60.8" x="-28.3" y="-30.4" overflow="visible" transform="translate(45.015 60.005)" xlink:href="#e"/></g></g></svg>
