<svg xmlns="http://www.w3.org/2000/svg" xmlns:xlink="http://www.w3.org/1999/xlink" viewBox="0 0 90 150"><symbol id="e" viewBox="-32.9 -59.4 65.9 118.8"><path fill="none" stroke="#004254" stroke-linecap="round" stroke-miterlimit="10" stroke-width="2" d="M25.4-25.8v-32.6h-57.3V58.4h57.2V12.1"/><path fill="none" stroke="#004254" stroke-miterlimit="10" stroke-width="2" d="M11.6-29c0 3.9-3.1 7-7 7s-7-3.1-7-7 3.1-7 7-7 7 3.2 7 7zM13.6-6.2c0 5-4 9-9 9s-9-4-9-9 4-9 9-9 9 4 9 9zM11.6 15.9c0 3.9-3.1 7-7 7s-7-3.1-7-7 3.1-7 7-7 7 3.1 7 7zM24.9-11.5c-3.9 0-7-3.1-7-7s3.1-7 7-7 7 3.1 7 7-3.1 7-7 7h0zM-15.7-11.5c-3.9 0-7-3.1-7-7s3.1-7 7-7 7 3.1 7 7-3.1 7-7 7zM24.9 12.1c-3.9 0-7-3.1-7-7s3.1-7 7-7 7 3.1 7 7-3.1 7-7 7h0zM-15.7 12.1c-3.9 0-7-3.1-7-7s3.1-7 7-7 7 3.1 7 7-3.1 7-7 7zM11.6-27.9c3 1 5.8 2.6 8.2 4.7M-10.6-23.2c2.4-2.1 5.2-3.7 8.2-4.7M-17.7-1.7c-.7-3.3-.6-6.6.2-9.9M-2.4 15.5c-3.2-1-6.2-2.8-8.7-5.2M20.3 10.4c-2.5 2.4-5.4 4.1-8.7 5.2"/><path fill="none" stroke="#004254" stroke-miterlimit="10" stroke-width="2" d="M26.7-11.7c.5 1.8.7 3.7.7 5.6 0 1.5-.1 3.1-.5 4.6"/></symbol><defs><path id="a" d="M-3-2h95v158H-3z"/></defs><clipPath id="b"><use overflow="visible" xlink:href="#a"/></clipPath><g clip-path="url(#b)"><defs><path id="c" d="M12.1 13H78v118.8H12.1z"/></defs><clipPath id="d"><use overflow="visible" xlink:href="#c"/></clipPath><g clip-path="url(#d)"><use width="65.9" height="118.8" x="-32.9" y="-59.4" overflow="visible" transform="translate(45.01 72.415)" xlink:href="#e"/></g></g></svg>