<?xml version="1.0" encoding="UTF-8"?>
<svg xmlns="http://www.w3.org/2000/svg" xmlns:xlink="http://www.w3.org/1999/xlink" viewBox="0 0 90 120"><switch><g style="stroke: #ffffff;fill: #ffffff;fill: #ffffff;"><symbol id="c" viewBox="-34.4 -28.1 68.8 56.1"><path fill="none" stroke="#004254" stroke-linecap="round" stroke-linejoin="round" stroke-width="2" d="M-30.7 9.1h21.4c1.5 0 2.7 1.2 2.7 2.7v12.5c0 1.5-1.2 2.7-2.7 2.7h-21.4c-1.5 0-2.7-1.2-2.7-2.7V11.8c0-1.5 1.2-2.7 2.7-2.7zM9.2 9.1h21.4c1.5 0 2.7 1.2 2.7 2.7v12.5c0 1.5-1.2 2.7-2.7 2.7H9.2c-1.5 0-2.7-1.2-2.7-2.7V11.8c0-1.5 1.2-2.7 2.7-2.7zM-10.7-27.1h21.4c1.5 0 2.7 1.2 2.7 2.7v12.5c0 1.5-1.2 2.7-2.7 2.7h-21.4c-1.5 0-2.7-1.2-2.7-2.7v-12.5c0-1.4 1.2-2.7 2.7-2.7zM-20 9.1V0h40v8.1M0-8.8V0" style="stroke: #ffffff;"/></symbol><defs><path id="a" d="M0-15h90v150H0z" style="stroke: #ffffff;fill: #ffffff;"/></defs><clipPath id="b"><use overflow="visible" xlink:href="#a"/></clipPath><g clip-path="url(#b)" style="stroke: #ffffff;fill: #ffffff;fill: #ffffff;fill: #ffffff;"><use width="68.8" height="56.1" x="-34.4" y="-28.1" overflow="visible" transform="translate(45.005 60)" xlink:href="#c"/></g></g></switch></svg>
