<?xml version="1.0" encoding="utf-8"?>
<svg xmlns="http://www.w3.org/2000/svg">
  <g>
    <g transform="translate(33.1837423082028,33)">
      <path id="path1" height="62" width="62" transform="rotate(180,30.8162576917972,31) translate(0,62) scale(1.32665721875975,-1.32665721875975)  " fill="#004254" d="M22.598998,38.592068C21.339798,38.592068 20.320298,39.61026 20.320298,40.870749 20.320298,42.127237 21.339798,43.149328 22.598998,43.149328 23.858198,43.149328 24.876298,42.127237 24.876298,40.870749 24.876298,39.61026 23.858198,38.592068 22.598998,38.592068z M15.611898,38.592068C14.352898,38.592068 13.335899,39.61026 13.335899,40.870749 13.335899,42.127237 14.352898,43.149328 15.611898,43.149328 16.871098,43.149328 17.890598,42.127237 17.890598,40.870749 17.890598,39.61026 16.871098,38.592068 15.611898,38.592068z M8.6275597,38.592068C7.371088,38.592068 6.3515587,39.61026 6.3515587,40.870749 6.3515587,42.127237 7.371088,43.149328 8.6275597,43.149328 9.8867188,43.149328 10.9063,42.127237 10.9063,40.870749 10.9063,39.61026 9.8867188,38.592068 8.6275597,38.592068z M22.598998,32.213223C21.339798,32.213223 20.320298,33.234114 20.320298,34.491903 20.320298,35.746992 21.339798,36.765284 22.598998,36.765284 23.858198,36.765284 24.876298,35.746992 24.876298,34.491903 24.876298,33.234114 23.858198,32.213223 22.598998,32.213223z M15.611898,32.213223C14.352898,32.213223 13.335899,33.234114 13.335899,34.491903 13.335899,35.746992 14.352898,36.765284 15.611898,36.765284 16.871098,36.765284 17.890598,35.746992 17.890598,34.491903 17.890598,33.234114 16.871098,32.213223 15.611898,32.213223z M8.6275597,32.213223C7.371088,32.213223 6.3515587,33.234114 6.3515587,34.491903 6.3515587,35.746992 7.371088,36.765284 8.6275597,36.765284 9.8867188,36.765284 10.9063,35.746992 10.9063,34.491903 10.9063,33.234114 9.8867188,32.213223 8.6275597,32.213223z M25.247298,26.318773C23.990998,26.318773 22.969998,27.338264 22.969998,28.593554 22.969998,29.853843 23.990998,30.870834 25.247298,30.870834 26.505198,30.870834 27.524798,29.853843 27.524798,28.593554 27.524798,27.338264 26.505198,26.318773 25.247298,26.318773z M18.263099,26.318773C17.003899,26.318773 15.984398,27.338264 15.984398,28.593554 15.984398,29.853843 17.003899,30.870834 18.263099,30.870834 19.522099,30.870834 20.541598,29.853843 20.541598,28.593554 20.541598,27.338264 19.522099,26.318773 18.263099,26.318773z M11.277298,26.318773C10.018198,26.318773 8.9986591,27.338264 8.9986591,28.593554 8.9986591,29.853843 10.018198,30.870834 11.277298,30.870834 12.535198,30.870834 13.554699,29.853843 13.554699,28.593554 13.554699,27.338264 12.535198,26.318773 11.277298,26.318773z M41.420387,16.688001L46.457,16.688001 46.457,44.711861 46.457,44.791258C46.457,45.866825,45.586082,46.734001,44.513055,46.734001L33.238,46.734001 33.238,44.711861 33.238,38.075262C33.238,32.096337,36.533573,27.809967,41.420387,25.008051z M17.661498,3.4609098C17.361898,3.4609098,17.117199,3.705658,17.117199,4.0050955L17.117199,9.3136396C17.117199,9.615757,17.361898,9.8592949,17.661498,9.8592944L36.756498,9.8592944C37.058498,9.8592949,37.302098,9.615757,37.302098,9.3136396L37.302098,4.0050955C37.302098,3.705658,37.058498,3.4609098,36.756498,3.4609098z M16.200598,0L38.218898,0C40.162698,0,41.740998,1.5832357,41.740998,3.5259695L41.740998,9.7941055C41.740998,11.739399,40.162698,13.314985,38.218898,13.314985L29.744798,13.314985 29.744798,16.687356 38.663898,16.687356 38.663898,24.083092C33.774798,26.890368,30.479098,32.096024,30.479098,38.075073L30.479098,44.711815 30.479098,46.733997 1.9439697,46.733997C0.87109375,46.733997,0,45.866806,0,44.791214L0,44.711815 0,38.075073C0,32.096024,3.2955284,26.890368,8.183588,24.083092L8.183588,16.687356 24.671898,16.687356 24.671898,13.314985 16.200598,13.314985C14.256498,13.314985,12.675798,11.739399,12.675798,9.7941055L12.675798,3.5259695C12.675798,1.5832357,14.256498,0,16.200598,0z" />
    </g>
  </g>
</svg>

