<?xml version="1.0" encoding="utf-8"?>
<svg xmlns="http://www.w3.org/2000/svg">
  <g>
    <g transform="translate(37,44.0224021085741)">
      <path id="path1" height="54" width="54" transform="rotate(360,27,19.9775978914259) translate(54,0) scale(-0.843736829181227,0.843736829181227)  " fill="#004254" d="M15.958999,25.439433L15.958999,28.889256C17.439,28.719266 18.179,28.179294 18.179,27.259339 18.179,26.519378 17.439,25.909408 15.958999,25.439433z M13.692998,17.989812C12.254997,18.179801 11.535997,18.729773 11.535997,19.639728 11.535997,20.419688 12.254997,21.069655 13.692998,21.589629z M13.692998,13.210054L15.958999,13.210054 15.958999,15.279949C18.142,15.349946,19.772,15.609933,20.848001,16.049911L20.848001,19.119754C19.399,18.479787,17.77,18.079806,15.958999,17.939815L15.958999,22.249595C18.225,22.849565 19.849,23.539529 20.832001,24.309489 21.815001,25.079452 22.307001,26.009404 22.307001,27.099347 22.307001,28.359284 21.758001,29.369233 20.662001,30.139194 19.565001,30.909154 17.997,31.37913 15.958999,31.549121L15.958999,34.018996 13.692998,34.018996 13.692998,31.619119C11.592997,31.609118,9.6369963,31.259137,7.8269954,30.569171L7.8269954,27.419332C8.4259958,27.769315 9.3209962,28.109296 10.510996,28.409282 11.700997,28.709266 12.761998,28.889256 13.692998,28.929255L13.692998,24.789466C11.271997,24.129498 9.6189963,23.419536 8.7339957,22.649575 7.8499956,21.879613 7.4069953,20.939662 7.4069953,19.829719 7.4069953,18.639779 7.9819956,17.61983 9.1299961,16.789872 10.277997,15.949915 11.799997,15.45994 13.692998,15.319947z M3.6670208,3.4600541L40.262993,12.079637C40.262993,12.079637 18.857009,27.548884 34.539997,43.658103 34.539997,43.658103 16.94901,30.938722 32.632998,13.559565L5.7160196,6.9898829C5.7160192,6.9898834 -3.8919735,28.608834 12.993014,42.168178 12.993014,42.168178 -8.3429699,31.99867 3.6670208,3.4600541z M12.922041,0L64.001001,8.2603903C24.837604,24.359843,34.712486,39.398501,38.754524,43.705031L38.845398,43.800044 46.101,43.800044 46.101,47.355044 1.2119999,47.355044 1.2119999,43.800044 38.471766,43.800044 38.025221,43.452384C18.706147,28.080951,48.741713,10.380483,48.741713,10.380483L10.802998,1.9001124z" />
    </g>
  </g>
</svg>

