<svg xmlns="http://www.w3.org/2000/svg" xmlns:xlink="http://www.w3.org/1999/xlink" viewBox="0 0 90 150"><symbol id="c" viewBox="-32.7 -61.2 65.3 122.3"><path fill="none" stroke="#004254" stroke-linecap="round" stroke-linejoin="round" stroke-width="2" d="M12.1 16.7H-20c-3.5 0-6.2-2.8-6.3-6.3v-20.5c0-3.5 2.8-6.2 6.3-6.3h35.1"/><path fill="none" stroke="#004254" stroke-linecap="round" stroke-linejoin="round" stroke-width="2" d="M31.3-8.5C30.1-3.8 25.2-1 20.5-2.3c-4.7-1.3-7.5-6.2-6.2-10.9 1.3-4.7 6.2-7.5 10.9-6.2 0 0 0 0 0 0 4.6 1.3 7.4 6.1 6.1 10.9z"/><path fill="none" stroke="#004254" stroke-linecap="round" stroke-linejoin="round" stroke-width="2" d="M22.2-15c.9-.7 2.2-.5 2.9.4.7.9.5 2.2-.4 2.9-.9.7-2.2.5-2.9-.4 0 0 0 0 0 0-.7-.9-.5-2.2.4-2.9 0 0 0 0 0 0zM17.7-3.3L16.6.9l1 3.7L15 6.7l-.7 2.5 1 3.7-2.6 2.1-1 3.7 1.7.4c2.2.6 4.6-.7 5.2-3 0 0 0 0 0 0l4.8-17.8M-21.4-2.6h13.8M-21.4-9.3h17.7"/><path fill="none" stroke="#004254" stroke-linecap="round" stroke-miterlimit="10" stroke-width="2" d="M27.4-18.4v-41.7h-59.1v45.3m0-1.8v76.8h59.1V-2.6"/></symbol><defs><path id="a" d="M12.4 13h65.3v122.3H12.4z"/></defs><clipPath id="b"><use overflow="visible" xlink:href="#a"/></clipPath><g clip-path="url(#b)"><use width="65.3" height="122.3" x="-32.7" y="-61.2" overflow="visible" transform="translate(45.005 74.155)" xlink:href="#c"/></g></svg>