<?xml version="1.0" encoding="UTF-8"?>
<svg xmlns="http://www.w3.org/2000/svg" xmlns:xlink="http://www.w3.org/1999/xlink" viewBox="0 0 90 120"><symbol id="c" viewBox="-29.9 -20.5 59.9 40.9"><path fill="none" stroke="#004254" stroke-linecap="round" stroke-linejoin="round" stroke-width="2" d="M9.4 17h-32.1c-3.5 0-6.2-2.8-6.3-6.3V-9.8c0-3.5 2.8-6.2 6.3-6.3h35.1" style="stroke: #ffffff;"/><path fill="none" stroke="#004254" stroke-linecap="round" stroke-linejoin="round" stroke-width="2" d="M28.6-8.3C27.3-3.5 22.5-.7 17.7-2c-4.7-1.3-7.5-6.2-6.2-10.9s6.2-7.5 10.9-6.2c0 0 0 0 0 0 4.7 1.2 7.5 6.1 6.2 10.8z" style="stroke: #ffffff;"/><path fill="none" stroke="#004254" stroke-linecap="round" stroke-linejoin="round" stroke-width="2" d="M19.5-14.7c.9-.7 2.2-.5 2.9.4.7.9.5 2.2-.4 2.9-.9.7-2.2.5-2.9-.4-.7-.9-.5-2.2.4-2.9 0 0 0 0 0 0zM14.9-3l-1.1 4.2 1 3.6L12.2 7l-.7 2.5 1 3.6-2.5 2.1-1 3.7 1.7.5c2.2.6 4.6-.7 5.2-3 0 0 0 0 0 0l4.8-17.8M-24.1-2.3h13.7M-24.1-9h17.7" style="stroke: #ffffff;"/></symbol><defs><path id="a" d="M15.1 39.5H75v40.9H15.1z" style="fill: #ffffff;"/></defs><clipPath id="b"><use overflow="visible" xlink:href="#a"/></clipPath><g clip-path="url(#b)"><use width="59.9" height="40.9" x="-29.9" y="-20.5" overflow="visible" transform="translate(45.005 60.001)" xlink:href="#c"/></g></svg>
